<?xml version="1.0" standalone="no"?>
<!DOCTYPE svg PUBLIC "-//W3C//DTD SVG 20010904//EN"
 "http://www.w3.org/TR/2001/REC-SVG-20010904/DTD/svg10.dtd">
<svg version="1.0" xmlns="http://www.w3.org/2000/svg"
 width="1850.000000pt" height="1850.000000pt" viewBox="0 0 1850.000000 1850.000000"
 preserveAspectRatio="xMidYMid meet">
<metadata>
Created by potrace 1.14, written by Peter Selinger 2001-2017
</metadata>
<g transform="translate(0.000000,1850.000000) scale(0.100000,-0.100000)"
fill="#000000" stroke="none">
<path d="M700 9250 l0 -9250 8550 0 8550 0 0 9250 0 9250 -8550 0 -8550 0 0
-9250z m10474 7207 c50 -20 130 -62 179 -93 55 -35 122 -67 175 -85 210 -67
612 -129 1132 -174 607 -53 892 -97 1083 -169 97 -36 150 -70 209 -135 169
-183 192 -431 74 -786 -76 -228 -147 -373 -384 -785 -324 -564 -379 -723 -308
-895 25 -62 28 -78 24 -152 -4 -72 -10 -93 -45 -165 -71 -142 -196 -259 -355
-332 -151 -70 -289 -74 -426 -12 -48 22 -103 38 -138 42 -78 8 -226 -18 -379
-66 -321 -103 -583 -142 -1020 -155 -386 -12 -472 -39 -635 -204 -173 -175
-277 -336 -306 -473 l-15 -70 40 -151 c49 -186 94 -334 120 -392 55 -125 187
-268 341 -370 156 -105 312 -168 505 -207 177 -36 542 -22 742 29 166 41 228
149 142 248 -45 51 -103 74 -230 91 -88 11 -122 20 -151 39 -64 42 -65 99 -3
130 36 18 57 20 222 17 149 -2 188 0 213 13 53 27 69 82 95 315 18 169 31 231
61 296 30 64 64 85 102 63 69 -39 97 -139 86 -313 -5 -80 -3 -124 6 -152 33
-103 111 -123 216 -56 69 45 122 102 210 228 124 178 185 209 265 137 48 -43
69 -81 69 -123 0 -32 -40 -78 -154 -174 -84 -71 -116 -119 -116 -174 0 -82 69
-125 291 -181 209 -53 310 -124 278 -195 -17 -35 -74 -57 -179 -67 -106 -10
-140 -19 -223 -61 -137 -68 -223 -135 -412 -318 -402 -390 -769 -598 -1326
-749 -233 -63 -333 -99 -404 -147 -101 -67 -137 -154 -110 -268 54 -236 297
-751 665 -1411 327 -586 416 -708 520 -708 49 0 77 18 248 160 159 132 221
170 300 185 108 20 218 -17 587 -200 248 -123 372 -176 474 -202 116 -31 171
-23 193 25 18 39 -3 103 -68 213 -80 134 -104 190 -104 243 0 37 5 52 27 73
32 32 60 40 118 34 60 -7 126 -42 188 -98 70 -64 106 -132 118 -223 5 -40 15
-84 21 -100 34 -86 149 -6 260 182 100 172 166 238 260 261 68 17 122 -1 180
-60 52 -54 59 -77 42 -136 -21 -76 -70 -133 -258 -301 -96 -86 -86 -88 259
-32 207 33 346 41 382 21 40 -22 53 -63 53 -164 0 -118 -16 -153 -83 -187 -44
-22 -66 -24 -270 -32 -305 -12 -390 -28 -418 -80 -27 -52 56 -139 266 -279
212 -140 316 -229 379 -324 33 -49 36 -125 6 -173 -60 -99 -239 -20 -495 217
-134 124 -230 193 -291 209 -134 36 -266 -81 -320 -282 -8 -29 -17 -101 -20
-162 -10 -189 -42 -254 -144 -290 -60 -21 -219 -32 -248 -16 -47 25 -48 90 -3
378 27 168 27 266 3 313 -26 49 -103 92 -246 139 -216 71 -462 129 -478 113
-20 -20 -90 -242 -142 -449 -59 -236 -132 -598 -165 -813 -23 -152 -45 -395
-38 -414 3 -7 1 -84 -4 -172 -34 -587 -258 -1472 -484 -1919 -283 -557 -946
-1175 -1524 -1419 -688 -291 -1780 -347 -2451 -126 -360 118 -927 379 -1323
609 -418 242 -845 533 -1152 786 -627 515 -1539 1407 -1716 1679 -74 112 -41
124 122 45 145 -71 258 -139 524 -314 728 -481 1361 -802 2007 -1016 470 -157
873 -230 1268 -232 468 -2 800 91 1145 321 394 263 513 539 485 1127 -17 352
-67 507 -207 637 -78 72 -148 113 -386 225 -340 159 -528 263 -743 409 -169
114 -208 118 -269 26 -37 -57 -212 -431 -240 -517 -44 -131 -31 -166 97 -265
116 -90 198 -139 267 -160 76 -23 93 -55 89 -161 -3 -65 -7 -81 -32 -113 -36
-48 -81 -67 -157 -67 -92 -1 -167 39 -288 154 -112 106 -184 148 -266 155 -71
6 -120 -12 -170 -62 -52 -53 -89 -128 -109 -228 -21 -102 -20 -221 4 -403 25
-192 14 -251 -51 -274 -48 -16 -214 -14 -248 4 -62 32 -69 127 -31 435 33 270
28 469 -13 521 -51 64 -128 8 -277 -201 -127 -179 -194 -238 -295 -261 -75
-17 -128 1 -187 62 -40 40 -48 55 -48 86 0 82 90 202 250 333 185 151 209 177
180 195 -5 3 -87 9 -182 14 -194 8 -237 20 -258 72 -16 37 -8 105 16 155 40
81 130 110 314 100 335 -18 364 -18 384 -4 28 22 16 66 -65 228 -83 170 -109
243 -109 310 0 94 47 140 143 140 40 0 49 -5 87 -46 23 -25 57 -80 77 -122 83
-182 114 -239 149 -275 57 -58 68 -61 103 -32 88 74 245 524 272 779 14 129
33 171 115 256 134 139 303 232 554 304 181 52 230 71 230 90 0 7 -142 317
-316 687 -174 371 -347 743 -385 827 -349 773 -585 1492 -664 2027 -9 61 -21
193 -26 295 -11 222 -23 270 -84 338 -61 67 -140 116 -379 232 -111 54 -257
133 -326 176 -275 175 -608 434 -872 681 -228 213 -412 365 -568 470 -103 70
-172 103 -235 113 -91 15 -127 53 -111 116 20 77 119 118 262 108 121 -9 187
10 238 66 41 45 47 77 30 150 -3 14 -50 68 -103 120 -110 106 -144 161 -145
233 -1 43 3 52 32 78 26 23 42 29 78 29 25 0 61 -7 80 -16 53 -25 127 -114
179 -216 57 -110 124 -208 159 -231 36 -24 79 -21 103 6 33 34 51 118 62 278
13 210 42 267 141 277 66 6 104 -11 127 -56 19 -40 22 -136 13 -384 -5 -107
-3 -119 16 -145 29 -39 70 -50 214 -57 215 -11 316 -40 346 -98 41 -80 -36
-137 -265 -194 -150 -38 -235 -75 -265 -116 -18 -26 -18 -28 -2 -53 61 -92
437 -169 826 -169 200 0 222 2 311 26 52 14 129 43 170 63 209 106 324 219
659 651 404 521 981 1064 1453 1369 345 222 650 479 1062 890 314 314 507 539
539 630 8 22 23 62 32 89 10 28 39 82 65 121 25 39 48 76 50 83 9 25 206 183
273 217 67 35 75 37 146 33 57 -4 97 -14 164 -41z"/>
<path d="M10954 16385 c-173 -38 -376 -211 -348 -298 6 -19 12 -19 98 -14 148
10 470 103 546 158 62 45 56 71 -28 113 -37 19 -95 39 -127 45 -69 13 -63 13
-141 -4z"/>
<path d="M13175 13273 c-65 -35 -157 -115 -314 -273 -276 -278 -286 -300 -136
-300 166 1 442 191 470 325 4 17 18 62 31 101 31 86 30 158 -1 161 -11 2 -33
-5 -50 -14z"/>
<path d="M6740 11550 c-12 -17 -60 -105 -106 -195 -109 -212 -111 -244 -15
-247 95 -3 160 149 161 374 0 48 -4 89 -9 93 -5 3 -19 -9 -31 -25z"/>
<path d="M8645 5838 c4 -13 44 -102 90 -198 102 -213 133 -318 103 -348 -19
-19 5 -36 145 -100 143 -65 197 -82 197 -61 0 14 -57 119 -108 199 -20 30 -56
87 -81 125 -70 110 -239 331 -282 370 -46 41 -74 47 -64 13z"/>
<path d="M9436 4813 c12 -84 82 -434 108 -544 29 -120 31 -171 12 -279 -32
-177 -151 -450 -267 -614 -199 -280 -571 -529 -942 -630 -183 -50 -243 -56
-632 -59 l-350 -2 -190 43 c-382 87 -614 156 -925 279 -381 150 -968 436
-1340 651 -52 30 -126 73 -165 95 -80 46 -191 116 -353 225 -61 41 -115 72
-118 69 -9 -9 63 -101 173 -221 196 -215 725 -740 866 -860 246 -208 495 -395
652 -491 44 -26 98 -67 120 -90 91 -95 277 -223 370 -256 32 -11 109 -51 169
-88 316 -194 890 -481 1170 -585 339 -127 638 -188 1011 -207 133 -6 230 -16
264 -26 43 -13 76 -14 170 -8 128 9 120 9 211 0 79 -8 285 30 394 74 88 35
389 118 435 120 47 2 148 47 340 153 91 50 193 106 226 124 141 76 233 154
425 358 103 111 201 217 216 236 l29 35 -26 -20 c-15 -11 -70 -55 -124 -99
-116 -94 -171 -120 -231 -113 -61 6 -170 62 -299 151 -60 42 -157 108 -214
147 -198 134 -287 213 -317 284 -23 53 -21 166 4 270 11 44 40 159 65 255 61
231 98 417 103 515 l5 80 -30 -60 c-16 -33 -45 -95 -65 -137 -55 -121 -68
-113 -131 82 -34 103 -92 170 -175 201 -92 35 -286 25 -320 -16 -10 -13 -10
-24 -1 -56 15 -51 7 -90 -26 -123 -32 -32 -38 -32 -59 -1 -31 48 -44 140 -59
425 -16 327 -42 502 -91 620 -15 34 -83 140 -91 140 -2 0 -1 -21 3 -47z"/>
</g>
</svg>
