<?xml version="1.0" encoding="UTF-8" standalone="no"?>
<svg
   xmlns:dc="http://purl.org/dc/elements/1.1/"
   xmlns:cc="http://creativecommons.org/ns#"
   xmlns:rdf="http://www.w3.org/1999/02/22-rdf-syntax-ns#"
   xmlns:svg="http://www.w3.org/2000/svg"
   xmlns="http://www.w3.org/2000/svg"
   xmlns:sodipodi="http://sodipodi.sourceforge.net/DTD/sodipodi-0.dtd"
   xmlns:inkscape="http://www.inkscape.org/namespaces/inkscape"
   viewBox="0 0 1710 1850"
   version="1.1"
   id="svg156"
   sodipodi:docname="solamanders-logo.svg"
   inkscape:version="1.0.2-2 (e86c870879, 2021-01-15)">
  <metadata
     id="metadata162">
    <rdf:RDF>
      <cc:Work
         rdf:about="">
        <dc:format>image/svg+xml</dc:format>
        <dc:type
           rdf:resource="http://purl.org/dc/dcmitype/StillImage" />
      </cc:Work>
    </rdf:RDF>
  </metadata>
  <defs
     id="defs160" />
  <sodipodi:namedview
     pagecolor="#ffffff"
     bordercolor="#666666"
     borderopacity="1"
     objecttolerance="10"
     gridtolerance="10"
     guidetolerance="10"
     inkscape:pageopacity="0"
     inkscape:pageshadow="2"
     inkscape:window-width="1718"
     inkscape:window-height="1368"
     id="namedview158"
     showgrid="false"
     inkscape:zoom="0.3972973"
     inkscape:cx="545"
     inkscape:cy="701.50722"
     inkscape:window-x="1713"
     inkscape:window-y="40"
     inkscape:window-maximized="0"
     inkscape:current-layer="svg156" />
  <g
     id="l3EDyoQIIMw42DBunmM44DN"
     fill="rgb(144,225,229)"
     style="transform: none;">
    <g
       id="g3">
      <path
         id="p14rQtcNSi"
         d="M725 1722 c-78 -29 -144 -66 -214 -117 -69 -51 -201 -180 -201 -196 0 -5 26 8 58 29 174 119 337 161 432 112 50 -26 70 -55 70 -105 0 -69 -9 -85 -58 -106 -24 -11 -57 -28 -72 -39 -27 -19 -27 -19 -45 21 -18 38 -18 40 1 54 10 8 22 15 27 15 4 0 7 6 7 14 0 23 -27 26 -46 5 -34 -38 -66 -11 -57 49 5 28 2 32 -16 32 -20 0 -21 -3 -15 -50 7 -56 -5 -66 -32 -25 -17 27 -38 32 -50 13 -4 -6 5 -21 22 -35 29 -23 29 -23 1 -23 -22 0 -28 -4 -25 -17 3 -14 12 -17 41 -15 38 4 38 4 23 -26 -15 -28 -13 -42 6 -42 5 0 13 11 18 25 5 14 14 25 19 25 9 0 31 -60 31 -86 0 -17 32 -42 63 -49 15 -4 27 -8 27 -10 0 -1 -25 -54 -55 -118 -54 -112 -85 -212 -85 -272 0 -27 -6 -33 -52 -54 -29 -13 -80 -51 -114 -83 -33 -32 -69 -58 -78 -58 -10 0 -16 -6 -13 -12 2 -7 13 -12 25 -10 27 4 39 -18 19 -33 -20 -15 -22 -35 -4 -35 8 0 19 11 25 25 16 34 32 31 32 -5 0 -21 5 -30 16 -30 11 0 14 8 12 33 -3 29 -1 32 26 32 40 0 44 21 6 28 -44 9 -37 25 14 32 73 11 102 -1 145 -58 45 -61 110 -123 166 -157 44 -27 147 -128 151 -148 4 -22 36 -52 53 -52 9 0 27 7 39 16 14 10 60 18 128 24 77 6 110 13 125 26 31 28 24 75 -25 157 -33 56 -41 78 -34 91 20 36 -41 89 -79 68 -11 -7 -30 -5 -56 4 -22 8 -63 14 -92 14 -47 0 -56 4 -79 31 -17 19 -25 39 -21 50 3 11 7 28 11 39 10 38 62 70 112 70 26 0 53 -4 61 -9 18 -11 5 -31 -20 -31 -10 0 -19 -5 -19 -11 0 -6 12 -9 28 -7 25 3 27 0 30 -35 2 -24 8 -37 15 -34 7 2 11 16 9 31 -4 34 20 35 43 0 13 -20 20 -23 28 -14 9 9 8 14 -5 24 -26 19 -22 33 12 40 35 7 40 26 7 26 -13 0 -36 14 -53 31 -40 42 -85 68 -141 82 -37 9 -49 17 -51 33 -2 12 23 69 55 127 58 105 58 105 86 81 35 -30 36 -30 98 1 56 29 76 25 53 -10 -10 -16 -12 -25 -4 -30 13 -8 40 12 40 31 0 22 15 16 30 -11 14 -27 34 -32 46 -13 4 6 -3 19 -16 30 -23 19 -23 19 18 12 38 -6 42 -5 42 15 0 18 -6 21 -40 21 -49 0 -51 12 -5 40 19 12 35 28 35 36 0 22 -21 17 -52 -13 -23 -22 -32 -25 -46 -17 -10 7 -17 24 -17 40 0 23 -5 30 -23 32 -21 3 -22 1 -16 -35 6 -38 5 -39 -32 -51 -21 -6 -39 -10 -40 -9 -10 12 -36 132 -35 165 2 55 -23 161 -49 213 -29 55 -87 110 -145 138 -70 33 -191 39 -260 13z m212 -39 c29 -9 53 -20 53 -25 0 -4 4 -8 9 -8 15 0 64 -54 88 -96 31 -57 53 -140 53 -203 0 -31 7 -78 15 -105 19 -62 20 -85 3 -68 -7 7 -27 12 -44 12 -31 0 -35 -5 -93 -114 -76 -142 -82 -194 -23 -225 23 -12 23 -13 -20 -34 -55 -28 -78 -72 -78 -150 0 -45 5 -62 21 -78 19 -19 21 -28 14 -95 -7 -74 -7 -74 25 -104 17 -16 67 -47 110 -69 59 -30 74 -40 59 -44 -11 -3 -44 1 -72 10 -40 11 -66 29 -112 74 -71 71 -157 129 -191 129 -19 0 -24 5 -24 25 0 28 -58 115 -76 115 -7 0 -14 5 -16 11 -2 6 -28 14 -58 18 -55 7 -55 7 3 36 57 29 57 29 57 78 0 60 36 170 95 287 28 55 45 103 45 125 0 32 -3 35 -29 35 -16 0 -34 7 -41 15 -11 13 -8 15 15 15 15 0 40 9 56 20 15 12 45 27 66 34 44 15 62 51 62 131 1 73 -7 95 -35 95 -19 0 -24 5 -24 24 0 39 -69 60 -168 53 -42 -3 -88 -9 -102 -12 -14 -3 -18 -2 -10 1 8 4 17 10 20 13 5 6 149 74 180 84 32 11 116 6 167 -10z" />
    </g>
  </g>
  <g
     id="l6aX28Kc8NO3mtdANmCy1wB"
     fill="rgb(76,233,159)"
     style="transform: none;">
    <g
       id="g23">
      <path
         id="pk9VK6Pfm"
         d="M798 1733 c-10 -2 -18 -10 -18 -17 0 -9 25 -15 80 -19 52 -4 86 -12 96 -22 9 -8 22 -15 30 -15 8 0 14 -4 14 -10 0 -5 14 -10 30 -10 27 0 30 -3 30 -30 0 -16 5 -30 10 -30 6 0 10 -7 10 -15 0 -8 5 -15 10 -15 6 0 10 -9 10 -20 0 -11 4 -20 9 -20 5 0 11 -22 15 -50 6 -42 10 -50 27 -50 19 0 20 4 14 37 -24 127 -105 235 -200 266 -56 17 -141 28 -167 20z" />
      <path
         id="pNFmYsSMF"
         d="M549 1628 c-44 -33 -44 -33 -4 -39 38 -6 38 -6 8 -8 -28 -1 -33 -5 -33 -26 0 -25 1 -25 34 -11 19 8 59 19 90 26 39 8 56 16 56 27 0 13 -10 15 -62 10 -35 -3 -55 -3 -45 0 17 4 25 53 9 53 -5 0 -29 -15 -53 -32z" />
      <path
         id="pogOIU2Th"
         d="M800 1566 c0 -3 17 -21 38 -40 35 -33 37 -37 36 -95 -1 -53 1 -61 17 -61 17 0 19 8 19 70 0 54 -3 70 -14 70 -9 0 -16 12 -18 28 -3 23 -8 27 -40 30 -21 2 -38 1 -38 -2z" />
      <path
         id="pRa8jEuUQ"
         d="M392 1498 c-12 -12 -16 -38 -6 -38 12 0 64 34 64 42 0 13 -45 9 -58 -4z" />
      <path
         id="p3dqIdyby"
         d="M330 1435 c-20 -24 -6 -28 15 -5 10 11 13 20 8 20 -6 0 -16 -7 -23 -15z" />
      <path
         id="pG6vmf6zO"
         d="M1130 1335 c0 -42 2 -45 26 -45 20 0 25 4 20 16 -3 9 -6 29 -6 45 0 22 -5 29 -20 29 -17 0 -20 -7 -20 -45z" />
      <path
         id="pnogZYbG5"
         d="M801 1329 c-13 -5 -36 -18 -51 -29 -36 -26 -47 -25 -56 2 -6 20 -7 19 -20 -11 -19 -44 -18 -65 4 -84 32 -29 52 -22 52 18 0 31 3 35 25 35 14 0 25 4 25 9 0 5 11 12 25 15 18 5 25 13 25 31 0 14 -1 25 -2 24 -2 0 -14 -5 -27 -10z" />
      <path
         id="pQVwcM1Mn"
         d="M1291 1268 c0 -7 4 -22 9 -33 7 -16 9 -17 9 -3 1 9 4 23 7 32 4 11 1 16 -10 16 -9 0 -16 -6 -15 -12z" />
      <path
         id="p1HJSeKWN3"
         d="M1100 1260 c0 -6 -20 -31 -45 -58 -25 -26 -45 -54 -45 -63 0 -9 -13 -27 -30 -40 -16 -13 -30 -29 -30 -35 0 -6 -11 -20 -25 -30 -14 -10 -25 -23 -25 -29 0 -16 -63 -145 -71 -145 -4 0 -10 -13 -14 -30 -4 -16 -10 -30 -14 -30 -7 0 -31 -116 -31 -152 0 -13 14 -52 30 -87 34 -70 122 -163 186 -196 22 -11 41 -23 44 -26 21 -25 110 -41 110 -20 0 6 -26 24 -57 41 -53 28 -138 90 -103 75 8 -4 6 0 -4 9 -17 14 -17 16 -3 22 12 4 14 11 7 30 -10 24 4 35 13 12 3 -7 6 -2 6 12 0 14 -4 32 -9 40 -7 12 -3 16 18 21 27 7 27 7 1 8 -35 1 -79 44 -79 76 0 64 60 135 114 135 11 0 17 3 14 6 -4 3 -3 18 2 33 7 25 5 29 -26 40 -54 19 -52 39 16 167 62 116 62 116 89 90 31 -30 41 -31 81 -11 18 10 30 23 30 36 0 13 4 18 12 13 6 -4 8 -3 4 4 -3 5 0 13 6 16 7 4 2 4 -12 0 -51 -11 -54 -10 -63 34 -8 42 -8 42 -53 42 -24 0 -44 -5 -44 -10z" />
      <path
         id="puz5I62fx"
         d="M660 995 c-22 -51 -50 -142 -50 -162 0 -7 9 -13 20 -13 16 0 21 9 26 50 4 28 10 50 15 50 5 0 9 11 9 25 0 14 5 25 10 25 6 0 10 16 10 35 0 48 -17 44 -40 -10z" />
      <path
         id="pfDj2tyFP"
         d="M502 698 c-30 -18 -31 -21 -17 -42 8 -12 12 -26 8 -30 -4 -4 11 -4 34 0 59 9 102 -15 149 -83 35 -51 142 -143 165 -143 5 0 9 11 9 25 0 16 -6 25 -15 25 -8 0 -15 5 -15 10 0 6 -9 10 -20 10 -11 0 -20 6 -20 13 0 21 -44 57 -68 57 -18 0 -22 6 -22 35 0 24 -5 35 -15 35 -8 0 -15 7 -15 15 0 8 -9 15 -20 15 -11 0 -20 5 -20 10 0 6 -13 10 -30 10 -17 0 -30 5 -30 13 0 6 -6 20 -13 29 -12 15 -15 15 -45 -4z" />
      <path
         id="puMLtFMv1"
         d="M1200 566 c0 -14 21 -26 46 -26 12 0 12 4 4 20 -12 23 -50 27 -50 6z" />
      <path
         id="p13PhEDM8m"
         d="M881 373 c64 -85 149 -141 149 -98 0 8 -7 15 -15 15 -8 0 -15 7 -15 15 0 10 -11 15 -35 15 -33 0 -35 2 -35 35 0 33 -2 35 -31 35 -28 0 -30 -2 -18 -17z" />
      <path
         id="pfDZ0zVhA"
         d="M1170 294 c0 -20 5 -24 30 -24 17 0 30 -5 30 -11 0 -13 62 -8 67 6 2 6 -26 20 -62 31 -65 22 -65 22 -65 -2z" />
      <path
         id="pCyhiyJXx"
         d="M1040 266 c0 -13 28 -26 58 -26 6 0 12 9 12 20 0 16 -7 20 -35 20 -23 0 -35 -5 -35 -14z" />
      <path
         id="pEQrB2DS4"
         d="M984 244 c3 -9 6 -18 6 -20 0 -2 9 -4 20 -4 25 0 26 16 1 30 -27 14 -34 13 -27 -6z" />
      <path
         id="pyZHy1oNY"
         d="M1040 224 c0 -16 9 -18 28 -5 10 6 9 10 -7 14 -14 3 -21 0 -21 -9z" />
    </g>
  </g>
  <g
     id="l1KHcE0c2sznkInCoLhcioE"
     fill="rgb(33,252,173)"
     style="transform: none;">
    <g
       id="g28">
      <path
         id="p1CPlnGC5h"
         d="M910 441 c0 -28 3 -31 30 -31 27 0 30 -3 30 -30 0 -16 5 -30 12 -30 6 0 9 -2 7 -5 -10 -9 -49 8 -49 21 0 9 -11 14 -31 14 -30 0 -30 0 -8 -31 32 -45 94 -86 148 -98 76 -16 311 4 251 22 -134 39 -278 109 -357 173 -33 27 -33 27 -33 -5z" />
      <path
         id="pB18ZcWsZ"
         d="M980 251 c0 -14 23 -28 53 -33 46 -9 40 9 -8 25 -25 9 -45 12 -45 8z" />
    </g>
  </g>
  <g
     id="l5s3m8ld8OZDaToCK5bZVj3"
     fill="rgb(22,248,151)"
     style="transform: none;">
    <g
       id="g32">
      <path
         id="p9h5ipLPU"
         d="M810 556 c0 -20 5 -36 10 -36 6 0 10 -7 10 -15 0 -8 6 -15 13 -15 22 0 -17 -20 -40 -20 -39 0 -26 -28 30 -64 28 -19 65 -50 82 -69 24 -29 36 -36 63 -35 19 1 36 7 39 14 3 8 15 14 26 14 12 0 32 1 45 2 22 2 22 3 5 15 -9 8 -23 11 -31 8 -7 -2 -10 -1 -7 4 5 9 -32 27 -47 23 -5 -1 -7 2 -5 6 1 5 -22 28 -52 53 -30 24 -70 67 -88 94 -43 62 -53 66 -53 21z" />
    </g>
  </g>
  <g
     id="l2bAGSpqA5BcRUSmm6wdiUQ"
     fill="rgb(20,238,142)"
     style="transform: none;">
    <g
       id="g41">
      <path
         id="phwJrqIRs"
         d="M1130 1420 c0 -15 -7 -20 -25 -20 -15 0 -25 -6 -25 -14 0 -8 -10 -16 -22 -18 -15 -2 -24 -11 -26 -26 -2 -14 -14 -27 -28 -33 -14 -5 -37 -22 -51 -39 -13 -16 -31 -30 -39 -30 -8 0 -14 -9 -14 -19 0 -11 -4 -21 -9 -23 -5 -1 -32 -49 -60 -106 -66 -136 -85 -222 -79 -364 5 -109 5 -109 -24 -115 -15 -3 -28 -9 -28 -14 0 -5 -11 -9 -25 -9 -25 0 -25 -1 -11 -28 16 -32 110 -123 146 -142 24 -13 24 -12 10 5 -14 17 -14 18 10 5 14 -7 22 -9 18 -5 -5 5 4 16 20 25 20 13 32 15 47 7 19 -9 16 -5 -52 70 -21 23 -54 106 -48 120 3 9 0 11 -7 7 -8 -5 -9 -2 -4 12 4 10 9 24 10 29 2 6 8 23 15 39 6 16 13 38 16 50 2 11 4 23 5 26 2 3 2 8 1 13 0 4 5 6 11 5 7 -2 12 3 10 10 -1 6 2 12 8 12 6 0 9 3 8 8 -5 14 32 92 43 92 6 0 9 8 6 19 -3 11 4 25 19 36 13 10 24 24 24 32 0 8 5 11 10 8 6 -3 10 0 10 7 0 7 9 19 20 26 13 8 20 23 20 42 0 21 5 30 16 30 9 0 21 14 27 30 6 17 18 30 25 30 10 0 13 11 10 40 -3 39 -3 40 29 40 31 0 43 12 24 24 -5 3 -7 33 -4 66 5 56 4 60 -16 60 -14 0 -21 -6 -21 -20z" />
      <path
         id="peYARYBvW"
         d="M730 1287 c-50 -23 -53 -47 -5 -47 32 0 35 2 35 30 0 17 -1 30 -2 29 -2 0 -14 -6 -28 -12z" />
      <path
         id="pa1aep1c"
         d="M1140 1206 c0 -34 2 -36 34 -36 32 0 33 1 27 33 -5 25 -12 33 -34 35 -25 3 -27 1 -27 -32z" />
      <path
         id="pDOA7wvO9"
         d="M650 964 c-25 -58 -25 -74 0 -74 15 0 20 7 20 25 0 14 5 25 10 25 6 0 10 16 10 35 0 48 -17 44 -40 -11z" />
      <path
         id="pGvxw2gzY"
         d="M955 858 c-24 -52 -43 -138 -32 -138 8 0 97 88 97 95 0 3 -6 5 -14 5 -11 0 -13 10 -9 39 8 61 -14 61 -42 -1z" />
      <path
         id="p3eZ4UajB"
         d="M524 668 c3 -13 6 -26 6 -30 0 -5 14 -8 30 -8 27 0 30 3 30 30 0 28 -3 30 -36 30 -33 0 -36 -2 -30 -22z" />
    </g>
  </g>
  <g
     id="l3QBzZ1N6KCREP2G6iEbJMn"
     fill="rgb(23,225,133)"
     style="transform: none;">
    <g
       id="g58">
      <path
         id="p1DFEuihq3"
         d="M711 1712 c-84 -32 -50 -58 40 -30 27 8 39 17 39 30 0 22 -21 22 -79 0z" />
      <path
         id="pg5VE3u75"
         d="M920 1700 c0 -16 7 -20 35 -20 39 0 46 14 16 30 -31 16 -51 12 -51 -10z" />
      <path
         id="pIA9VsK89"
         d="M1010 1661 c0 -24 4 -31 20 -31 13 0 20 -7 20 -20 0 -13 7 -20 20 -20 16 0 20 -7 20 -30 0 -16 5 -30 10 -30 20 0 9 -30 -17 -47 -84 -54 -137 -115 -163 -184 -12 -35 -45 -108 -71 -161 -27 -54 -49 -106 -49 -117 0 -11 -4 -21 -10 -23 -12 -4 -40 -112 -40 -155 0 -22 5 -33 14 -33 9 0 19 25 30 73 17 74 113 290 127 282 9 -6 21 24 14 36 -4 5 1 6 9 3 9 -3 16 -2 16 2 0 5 14 24 31 42 29 31 32 32 45 15 13 -17 13 -17 14 5 0 25 20 26 28 2 3 -7 0 -10 -7 -6 -6 4 -11 3 -11 -2 0 -5 -9 -19 -20 -32 -11 -13 -20 -18 -20 -12 0 6 -7 9 -15 6 -21 -8 -19 -24 3 -25 14 0 14 -2 -3 -8 -11 -5 -23 -7 -27 -4 -5 2 -8 -5 -8 -16 0 -12 -3 -21 -7 -21 -5 0 -9 -14 -10 -30 -2 -30 11 -41 20 -17 4 9 6 9 6 -1 1 -7 -9 -17 -21 -22 -19 -7 -20 -9 -4 -9 12 -1 16 -6 12 -17 -3 -9 -6 -18 -6 -20 0 -2 -8 -4 -17 -4 -14 0 -15 2 -4 9 10 6 10 10 1 16 -18 11 -24 -3 -12 -29 8 -19 8 -26 -1 -29 -7 -2 -9 -7 -6 -11 8 -8 59 37 59 52 0 7 5 10 10 7 6 -3 10 0 10 7 0 7 9 19 20 26 11 7 20 20 20 30 0 9 21 39 47 66 26 27 44 42 40 33 -4 -9 -9 -23 -12 -30 -3 -7 6 -24 20 -37 25 -24 25 -24 55 8 16 18 25 32 21 32 -4 0 -13 28 -19 63 -7 35 -19 67 -28 74 -14 10 -15 15 -5 27 16 19 8 104 -15 171 -20 62 -64 127 -104 155 -30 21 -30 21 -30 -9z m85 -331 c-3 -5 -13 -10 -21 -10 -8 0 -12 5 -9 10 3 6 13 10 21 10 8 0 12 -4 9 -10z m-93 -223 c-5 -20 -6 -20 -13 -1 -11 29 -10 34 5 28 8 -3 12 -13 8 -27z" />
      <path
         id="prjw5Suj3"
         d="M588 1652 c-37 -22 -35 -32 7 -32 31 0 35 3 35 25 0 29 -6 30 -42 7z" />
      <path
         id="p5yIX3sIQ"
         d="M620 1590 c0 -21 10 -24 48 -14 36 10 27 34 -13 34 -28 0 -35 -4 -35 -20z" />
      <path
         id="pFZncsYlK"
         d="M720 1595 c0 -8 6 -15 13 -15 29 0 113 -49 126 -73 20 -37 31 -34 31 8 0 24 -5 35 -15 35 -8 0 -15 6 -15 14 0 17 -69 46 -110 46 -20 0 -30 -5 -30 -15z" />
      <path
         id="p1BGyWJM5Z"
         d="M538 1581 c-1 -5 -20 -11 -41 -14 -31 -4 -52 -19 -107 -73 -38 -37 -67 -70 -65 -72 2 -2 24 10 49 27 51 35 203 111 223 111 7 0 13 7 13 15 0 17 -66 22 -72 6z" />
      <path
         id="p11yV4XldC"
         d="M872 1391 c-11 -33 -20 -42 -77 -70 -36 -18 -65 -36 -65 -41 0 -5 -6 -7 -14 -4 -8 3 -19 -8 -29 -28 -15 -31 -15 -34 0 -45 9 -7 28 -13 41 -13 25 0 25 0 5 -47 -3 -9 4 -13 20 -13 14 0 28 7 31 16 9 24 7 74 -3 74 -5 0 -2 18 7 40 12 27 23 40 37 40 59 1 85 32 85 101 0 42 -25 36 -38 -10z" />
      <path
         id="pm844YftV"
         d="M700 1080 c-40 -79 -42 -90 -17 -90 27 0 57 53 57 100 0 42 -16 37 -40 -10z" />
      <path
         id="pXwUHG8eE"
         d="M621 876 c-15 -62 -14 -76 8 -76 18 0 31 39 31 98 0 40 -27 24 -39 -22z" />
      <path
         id="pReqdPIsU"
         d="M956 853 c-14 -34 -28 -89 -32 -120 -5 -58 -5 -58 15 -18 26 52 42 71 66 78 30 10 30 71 0 101 -23 23 -23 23 -49 -41z" />
      <path
         id="pkYIyslcz"
         d="M538 719 c-37 -19 -37 -19 -20 -54 9 -19 22 -33 28 -31 24 9 93 -33 122 -75 16 -24 47 -60 68 -79 31 -28 30 -25 -9 17 -48 53 -64 81 -27 48 18 -16 24 -14 21 7 0 4 6 5 14 2 8 -4 15 -1 15 5 0 6 5 11 11 11 5 0 8 -4 5 -9 -4 -5 4 -7 15 -4 21 6 21 7 3 20 -18 13 -18 13 1 11 11 -2 26 -7 33 -12 10 -6 10 -1 -2 21 -8 17 -20 51 -27 77 -11 46 -12 47 -43 40 -17 -3 -43 -13 -58 -20 -15 -8 -40 -14 -57 -14 -25 0 -30 5 -36 30 -8 35 -9 35 -57 9z" />
      <path
         id="pzghI3G8P"
         d="M1205 555 c31 -25 55 -32 55 -16 0 19 -32 41 -58 41 -27 -1 -27 -1 3 -25z" />
      <path
         id="pmnA9Hwol"
         d="M980 254 c0 -22 25 -44 50 -44 46 0 44 17 -5 33 -25 9 -45 14 -45 11z" />
    </g>
  </g>
  <g
     id="l3UAS13nJEqnQ4IBlMSGV8g"
     fill="rgb(27,212,125)"
     style="transform: none;">
    <g
       id="g73">
      <path
         id="pwEtIWQ6T"
         d="M880 1710 c0 -16 7 -20 35 -20 40 0 49 24 13 34 -38 10 -48 7 -48 -14z" />
      <path
         id="pBYu1XBeu"
         d="M663 1690 c-60 -27 -170 -100 -223 -149 -45 -40 -45 -40 -15 -40 32 0 65 19 65 38 0 6 9 11 20 11 11 0 23 7 26 15 7 18 31 20 36 4 6 -17 68 -1 68 17 0 8 -9 14 -20 14 -11 0 -20 7 -20 15 0 9 9 15 25 15 16 0 25 6 25 15 0 10 10 15 30 15 25 0 30 4 30 25 0 14 -1 25 -2 25 -2 0 -22 -9 -45 -20z" />
      <path
         id="piEDrlzeX"
         d="M1070 1597 c0 -19 5 -37 12 -39 16 -6 -89 -108 -110 -108 -7 0 -62 -168 -62 -190 0 -6 -7 -18 -15 -26 -17 -17 -21 -84 -4 -84 11 0 50 82 70 148 6 23 16 39 20 36 5 -3 9 -1 9 3 0 16 69 81 122 116 32 20 35 21 41 5 2 -7 2 1 -1 17 -6 44 -41 121 -63 141 -18 17 -19 16 -19 -19z" />
      <path
         id="pOcVJj27W"
         d="M347 1451 c-30 -35 -24 -41 11 -11 13 11 22 25 20 31 -2 5 -16 -3 -31 -20z" />
      <path
         id="pxtL8xxDo"
         d="M775 1310 c-16 -11 -26 -20 -22 -20 5 0 -2 -20 -16 -44 -26 -47 -25 -56 5 -56 19 0 19 -1 -1 -33 -11 -18 -24 -45 -30 -60 -10 -25 -8 -27 13 -27 24 0 46 34 46 70 0 11 5 20 10 20 6 0 10 19 10 43 0 24 5 48 11 54 6 6 9 25 7 42 -3 31 -3 31 -33 11z" />
      <path
         id="pLmfQyn2E"
         d="M1151 1263 c-7 -32 -15 -65 -18 -73 -2 -8 6 2 19 23 13 21 27 34 32 30 8 -9 -2 44 -13 65 -4 7 -13 -14 -20 -45z" />
      <path
         id="pBBO7LwSn"
         d="M676 1022 c-2 -4 -14 -31 -25 -60 -21 -52 -21 -52 4 -52 20 0 25 5 25 25 0 14 5 25 10 25 6 0 10 16 10 35 0 32 -12 46 -24 27z" />
      <path
         id="phvUJnz8K"
         d="M790 1005 c0 -14 -4 -25 -10 -25 -5 0 -10 -16 -10 -35 0 -54 22 -42 47 25 22 60 22 60 -3 60 -19 0 -24 -5 -24 -25z" />
      <path
         id="pxOPi8Sxe"
         d="M962 862 c-40 -93 -58 -212 -20 -132 12 25 21 48 20 52 -1 3 5 32 14 64 8 31 13 59 11 61 -3 2 -14 -18 -25 -45z" />
      <path
         id="p17t6fnA4S"
         d="M750 876 c0 -18 -7 -26 -27 -31 -15 -3 -34 -15 -43 -25 -20 -23 -30 -17 -30 17 0 13 -6 23 -14 23 -15 0 -26 -30 -26 -75 0 -24 -7 -34 -34 -49 -33 -18 -33 -18 -15 -53 10 -20 16 -40 13 -44 -3 -5 2 -9 10 -9 8 0 32 -15 53 -32 21 -18 32 -25 25 -16 -8 9 -10 23 -6 29 4 7 3 9 -3 6 -6 -4 -14 0 -17 9 -9 23 -8 26 7 17 17 -10 37 -13 37 -4 0 9 66 41 85 41 7 0 15 -7 17 -17 2 -9 3 41 3 110 0 114 -2 127 -17 127 -12 0 -18 -8 -18 -24z" />
      <path
         id="pWlWUtqVM"
         d="M1180 575 c0 -2 9 -9 20 -15 16 -9 20 -8 20 5 0 8 -9 15 -20 15 -11 0 -20 -2 -20 -5z" />
      <path
         id="pOniFGD94"
         d="M980 252 c1 -16 28 -42 44 -42 27 0 18 25 -14 37 -16 6 -30 8 -30 5z" />
    </g>
  </g>
  <g
     id="l2ENukccJOvJ3Il1mkyuOrD"
     fill="rgb(31,200,120)"
     style="transform: none;">
    <g
       id="g89">
      <path
         id="pXns85YLz"
         d="M748 1723 c-33 -8 -20 -33 17 -33 28 0 35 4 35 20 0 20 -14 23 -52 13z" />
      <path
         id="pWil8nIet"
         d="M940 1695 c0 -18 5 -25 20 -25 11 0 20 -4 20 -10 0 -5 9 -10 20 -10 11 0 20 -5 20 -11 0 -14 25 -39 39 -39 6 0 11 -6 11 -12 0 -16 -74 -78 -92 -78 -9 0 -18 -25 -26 -78 -15 -98 -15 -112 2 -112 9 0 19 19 26 50 6 27 15 48 18 47 9 -2 45 27 93 75 25 25 39 34 43 25 3 -6 3 -1 0 13 -17 69 -94 152 -166 179 -26 10 -28 9 -28 -14z" />
      <path
         id="p11meXzIu2"
         d="M653 1685 c-43 -18 -42 -35 2 -35 31 0 35 3 35 25 0 14 -1 25 -2 25 -2 -1 -18 -7 -35 -15z" />
      <path
         id="pGMIEfS0O"
         d="M610 1590 c0 -21 10 -24 48 -14 36 10 27 34 -13 34 -28 0 -35 -4 -35 -20z" />
      <path
         id="pJV84KElR"
         d="M510 1555 c0 -24 1 -25 32 -12 46 19 48 37 4 37 -32 0 -36 -3 -36 -25z" />
      <path
         id="p9HhwqJRq"
         d="M406 1509 c-74 -65 -77 -85 -6 -41 44 27 60 43 60 60 0 12 -2 22 -4 22 -2 0 -24 -18 -50 -41z" />
      <path
         id="p18k3kziDN"
         d="M864 1495 c24 -51 46 -59 46 -16 0 46 -10 61 -40 61 -27 0 -27 0 -6 -45z" />
      <path
         id="pOz1VpumK"
         d="M801 1324 c-19 -8 -31 -17 -28 -20 3 -3 -8 -27 -24 -54 -35 -56 -36 -63 -8 -55 18 6 20 4 14 -14 -4 -12 -2 -21 4 -21 6 0 11 7 11 16 0 17 48 105 63 115 5 4 7 16 5 27 -3 19 -5 20 -37 6z" />
      <path
         id="pT6amK2AD"
         d="M1160 1295 c0 -11 -3 -31 -5 -45 -5 -21 -3 -19 12 8 13 25 14 35 5 44 -9 9 -12 8 -12 -7z" />
      <path
         id="pks6dWPuy"
         d="M900 1235 c0 -22 -5 -35 -13 -35 -15 0 -87 -141 -87 -170 0 -11 -4 -20 -10 -20 -5 0 -10 -13 -10 -29 0 -21 -6 -32 -20 -36 -11 -3 -20 -11 -20 -16 0 -5 -7 -9 -15 -9 -8 0 -15 -4 -15 -10 0 -5 -9 -10 -20 -10 -15 0 -20 7 -20 25 0 14 -4 25 -10 25 -17 0 -31 -38 -43 -121 -10 -73 -14 -82 -39 -95 -28 -14 -28 -14 -8 -50 11 -19 18 -39 15 -45 -4 -5 -2 -9 4 -9 5 0 24 -12 42 -27 32 -28 33 -28 17 -3 -9 14 -21 49 -27 78 -13 63 -13 63 -3 60 13 -4 52 13 52 23 0 5 3 8 7 8 21 -3 33 2 27 12 -5 8 -1 8 14 0 14 -7 23 -8 27 -1 4 6 10 8 14 6 4 -3 16 32 25 77 11 52 41 131 81 217 91 193 90 190 60 190 -22 0 -25 -4 -25 -35z" />
      <path
         id="pXz2aXOmK"
         d="M954 843 c-8 -21 -18 -51 -20 -68 -3 -16 -7 -41 -10 -55 -3 -21 -1 -19 15 10 10 19 17 39 15 45 -3 6 2 32 10 58 17 56 12 61 -10 10z" />
      <path
         id="pRNsmbkff"
         d="M1220 563 c0 -11 9 -28 20 -38 19 -18 20 -17 20 2 0 11 -9 28 -20 38 -19 18 -20 17 -20 -2z" />
      <path
         id="p199WYDaL9"
         d="M990 241 c11 -22 30 -29 30 -11 0 5 -9 14 -21 20 -19 11 -20 10 -9 -9z" />
    </g>
  </g>
  <g
     id="l5Tf3HcMAOoXenbWrdu1Z1u"
     fill="rgb(36,186,122)"
     style="transform: none;">
    <g
       id="g101">
      <path
         id="pXClh1puZ"
         d="M870 1710 c0 -16 7 -20 35 -20 40 0 49 24 13 34 -38 10 -48 7 -48 -14z" />
      <path
         id="p3bmkZhZH"
         d="M633 1674 c-43 -21 -42 -34 2 -34 31 0 35 3 35 25 0 14 -1 25 -2 25 -2 0 -18 -8 -35 -16z" />
      <path
         id="p15LNErrJr"
         d="M1030 1640 c0 -20 5 -30 15 -30 24 0 17 -18 -12 -34 -48 -24 -70 -58 -77 -114 -4 -29 -16 -81 -26 -115 -11 -34 -20 -70 -20 -79 0 -10 -4 -18 -10 -18 -5 0 -10 -16 -10 -36 0 -24 4 -34 13 -32 18 7 65 136 80 220 8 44 18 74 26 76 23 5 100 75 94 85 -3 6 -1 7 5 3 7 -4 12 -4 12 -1 0 12 -55 83 -72 94 -16 10 -18 7 -18 -19z" />
      <path
         id="pjJuaTWfe"
         d="M379 1483 c-44 -53 -45 -58 -11 -34 17 12 32 29 32 37 0 18 -4 18 -21 -3z" />
      <path
         id="paBqU4f8z"
         d="M804 1322 c-6 -4 -25 -33 -43 -64 -25 -46 -29 -58 -17 -58 9 0 16 -4 16 -10 0 -23 16 -7 38 38 24 47 27 109 6 94z" />
      <path
         id="pBvr7Zj6x"
         d="M1160 1290 c0 -19 3 -21 12 -12 9 9 9 15 0 24 -9 9 -12 7 -12 -12z" />
      <path
         id="p13id08DQw"
         d="M682 1033 c-25 -48 -62 -167 -68 -222 -5 -51 -11 -64 -30 -74 -23 -12 -23 -12 -2 -57 12 -25 21 -47 21 -50 -1 -3 10 -13 24 -24 25 -18 25 -18 14 2 -24 45 -31 111 -20 188 7 42 14 72 18 67 8 -11 73 -14 66 -3 -3 5 1 7 9 4 9 -4 18 1 22 10 3 9 10 13 15 10 5 -3 12 2 15 11 4 10 9 12 13 7 3 -6 18 23 33 64 26 74 26 74 -6 74 -18 0 -41 -7 -52 -15 -27 -20 -44 -18 -44 5 0 25 -16 26 -28 3z" />
      <path
         id="pwaIviGqw"
         d="M936 788 c-3 -13 -5 -34 -5 -48 1 -15 5 -7 10 19 9 47 6 68 -5 29z" />
      <path
         id="pkjlNQMOG"
         d="M1235 530 c20 -22 31 -20 22 5 -4 8 -14 15 -23 15 -16 0 -16 -2 1 -20z" />
    </g>
  </g>
  <g
     id="l3pJO7ox68F9wr0ifuZdril"
     fill="rgb(38,177,122)"
     style="transform: none;">
    <g
       id="g110">
      <path
         id="p2pkpctsc"
         d="M1011 1594 c-25 -24 -48 -44 -53 -44 -4 0 -8 -29 -8 -63 0 -35 -7 -86 -15 -113 -8 -27 -15 -59 -15 -71 0 -13 -4 -23 -10 -23 -5 0 -10 -8 -10 -17 0 -19 -41 -43 -72 -43 -10 0 -18 -4 -18 -10 0 -5 -5 -10 -10 -10 -6 0 -1 18 10 40 20 39 27 90 13 90 -16 0 -29 -16 -53 -65 -13 -27 -29 -53 -35 -57 -6 -5 -3 -8 8 -8 9 0 17 -2 17 -4 0 -3 -20 -46 -45 -98 -25 -51 -43 -98 -40 -106 2 -7 1 -11 -4 -7 -9 5 -47 -93 -39 -101 3 -2 11 15 18 38 7 24 15 38 17 31 2 -7 11 -9 19 -6 7 3 11 9 8 14 -3 5 2 6 11 3 8 -4 22 -1 30 6 8 7 15 9 15 5 0 -5 8 -1 18 8 10 10 22 14 25 10 4 -3 7 0 7 8 0 11 2 11 8 1 6 -8 30 32 69 115 67 139 100 235 109 319 7 57 5 55 97 127 29 22 29 22 7 50 -12 15 -24 27 -28 26 -4 0 -27 -20 -51 -45z" />
      <path
         id="pLvOEBzyn"
         d="M730 1597 c0 -8 16 -18 35 -24 33 -11 35 -10 35 13 0 21 -5 24 -35 24 -22 0 -35 -5 -35 -13z" />
      <path
         id="pVO0Eglac"
         d="M873 1385 c-11 -33 -10 -35 13 -35 21 0 24 5 24 35 0 22 -5 35 -13 35 -8 0 -18 -16 -24 -35z" />
      <path
         id="pcptDTucF"
         d="M612 790 c0 -19 2 -27 5 -17 2 9 2 25 0 35 -3 9 -5 1 -5 -18z" />
      <path
         id="psVpl2Lrb"
         d="M574 734 c-8 -3 -5 -18 9 -47 11 -23 20 -47 20 -53 0 -6 8 -16 17 -22 15 -9 15 -6 3 41 -7 28 -13 59 -13 69 0 17 -13 21 -36 12z" />
      <path
         id="pVWTLc4em"
         d="M1190 572 c0 -4 9 -13 20 -20 18 -11 20 -10 20 8 0 13 -7 20 -20 20 -11 0 -20 -3 -20 -8z" />
    </g>
  </g>
  <g
     id="l6lgI8YEuC4OG9yAinMFWX3"
     fill="rgb(34,170,125)"
     style="transform: none;">
    <g
       id="g118">
      <path
         id="pfBkYXWq5"
         d="M910 1700 c0 -15 7 -20 25 -20 14 0 25 -4 25 -10 0 -5 16 -10 35 -10 48 0 45 -20 -10 -49 -44 -23 -44 -23 -42 -110 2 -76 0 -88 -20 -108 -11 -11 -30 -24 -42 -28 -12 -3 -21 -10 -21 -14 0 -4 -16 -13 -35 -20 -19 -7 -33 -16 -31 -20 3 -4 -8 -30 -24 -59 -15 -28 -23 -53 -18 -54 6 -2 -6 -36 -26 -76 -20 -39 -36 -75 -36 -79 1 -5 16 21 34 56 31 60 35 64 72 68 21 2 41 8 42 13 2 6 8 10 13 10 6 0 7 -5 3 -12 -4 -7 7 -2 24 11 28 20 31 20 27 4 -3 -10 4 2 16 27 34 69 59 169 61 238 1 34 5 62 8 62 3 0 26 20 51 44 40 39 47 42 57 27 10 -13 11 -13 3 5 -22 46 -133 124 -177 124 -8 0 -14 -9 -14 -20z" />
      <path
         id="pRz3QEHuA"
         d="M419 1520 c-15 -11 -39 -36 -54 -56 -27 -36 -27 -36 29 2 35 23 56 44 56 55 0 23 1 23 -31 -1z" />
      <path
         id="plJTLnUF6"
         d="M570 730 c-9 -6 -10 -10 -3 -10 6 0 19 -21 29 -47 9 -27 23 -54 30 -62 10 -11 9 -4 -1 25 -8 21 -14 54 -15 72 0 33 -12 40 -40 22z" />
      <path
         id="p14R8wdBQG"
         d="M1205 560 c18 -20 45 -27 45 -12 0 15 -24 32 -44 32 -18 0 -19 -1 -1 -20z" />
      <path
         id="phiBlsV4h"
         d="M1002 232 c4 -19 45 -29 59 -15 6 6 -5 14 -26 20 -32 10 -36 9 -33 -5z" />
    </g>
  </g>
  <g
     id="l5ddOv1eEjhQuEf59ljPNDH"
     fill="rgb(31,165,126)"
     style="transform: none;">
    <g
       id="g131">
      <path
         id="ptQ9I2xN8"
         d="M726 1712 c-92 -32 -60 -56 39 -30 32 9 45 17 45 30 0 22 -20 22 -84 0z" />
      <path
         id="pEsgKsXrs"
         d="M1000 1678 c0 -7 -18 -24 -41 -38 -40 -25 -41 -26 -35 -72 5 -48 5 -48 -30 -48 -31 0 -34 -2 -24 -19 13 -26 13 -104 -1 -135 -6 -13 -21 -27 -33 -30 -13 -3 -31 -26 -46 -57 -14 -29 -31 -58 -38 -66 -11 -11 -11 -13 0 -13 8 0 22 14 32 30 9 17 22 27 28 24 7 -4 8 -2 4 5 -9 14 12 43 25 35 5 -3 6 1 3 9 -3 8 0 18 7 23 7 4 10 3 5 -4 -3 -6 -2 -13 3 -16 5 -3 11 0 14 8 3 7 15 16 26 19 12 3 19 2 16 -3 -3 -4 2 -10 10 -13 8 -4 12 -1 9 6 -2 7 2 21 11 32 15 19 15 19 10 -10 -5 -30 -5 -30 6 -5 7 14 13 69 13 122 1 98 1 98 44 120 23 13 42 29 42 37 0 11 5 10 23 -5 12 -10 6 -1 -13 20 -42 45 -70 63 -70 44z" />
      <path
         id="pWHTWqCTT"
         d="M529 1607 c-55 -40 -73 -58 -71 -73 5 -27 7 -27 42 -9 20 10 30 22 26 31 -3 9 1 14 14 14 13 0 20 7 20 20 0 13 7 20 20 20 13 0 20 -7 20 -20 0 -21 10 -24 48 -14 30 9 28 34 -3 34 -20 0 -25 5 -25 25 0 14 -4 25 -9 25 -5 0 -42 -24 -82 -53z" />
      <path
         id="pBsv51UrI"
         d="M680 1600 c0 -16 7 -20 35 -20 28 0 35 4 35 20 0 16 -7 20 -35 20 -28 0 -35 -4 -35 -20z" />
      <path
         id="pSTEknFuA"
         d="M760 1590 c0 -8 51 -40 65 -40 3 0 5 11 5 25 0 22 -4 25 -35 25 -19 0 -35 -4 -35 -10z" />
      <path
         id="pZZNPt1zq"
         d="M396 1493 c-14 -14 -24 -28 -22 -30 6 -6 66 29 66 39 0 19 -20 15 -44 -9z" />
      <path
         id="pEVw5qtSZ"
         d="M745 1160 c-9 -16 -13 -30 -11 -30 3 0 12 14 21 30 9 17 13 30 11 30 -3 0 -12 -13 -21 -30z" />
      <path
         id="pBGJ9VqL2"
         d="M577 733 c-2 -5 4 -21 14 -38 19 -30 19 -30 19 8 0 26 -4 37 -14 37 -8 0 -17 -3 -19 -7z" />
      <path
         id="pjWcoqyMj"
         d="M1220 556 c0 -16 28 -42 36 -33 8 7 -14 47 -26 47 -6 0 -10 -6 -10 -14z" />
      <path
         id="pgNpXJnE4"
         d="M992 238 c6 -17 36 -34 45 -24 4 4 -1 14 -11 22 -24 17 -39 18 -34 2z" />
    </g>
  </g>
  <g
     id="lJ6kBHOlIvnHQv9UZDsMzS"
     fill="rgb(26,157,131)"
     style="transform: none;">
    <g
       id="g141">
      <path
         id="pCjIRCerE"
         d="M860 1710 c0 -16 7 -20 35 -20 40 0 49 24 13 34 -38 10 -48 7 -48 -14z" />
      <path
         id="pBQZCvzK6"
         d="M948 1683 c-3 -27 -5 -28 -50 -25 -46 4 -48 3 -48 -22 0 -14 -1 -26 -3 -26 -1 0 -18 5 -37 10 -19 6 -61 8 -92 4 -47 -5 -58 -9 -58 -24 0 -16 8 -19 48 -19 57 1 88 -10 130 -46 30 -25 55 -83 47 -108 -2 -7 -6 -25 -9 -42 -5 -25 -5 -27 5 -11 6 10 11 40 11 67 0 27 4 46 9 43 5 -3 7 -10 4 -15 -4 -5 5 -9 19 -9 17 0 27 7 32 23 7 21 7 21 15 2 12 -32 10 -5 -4 50 -14 50 -14 50 32 81 46 32 46 32 71 11 19 -16 17 -13 -5 11 -25 28 -92 72 -109 72 -3 0 -6 -12 -8 -27z" />
      <path
         id="pbvfR8Wm7"
         d="M547 1620 c-15 -12 -24 -27 -20 -35 4 -11 -2 -15 -21 -15 -14 0 -26 -4 -26 -10 0 -5 -6 -10 -13 -10 -7 0 -39 -28 -72 -61 -42 -43 -49 -54 -25 -37 47 34 165 93 218 109 43 12 58 39 22 39 -13 0 -20 7 -20 20 0 25 -11 25 -43 0z" />
      <path
         id="p1AGMsuwPH"
         d="M825 1330 c-11 -5 -17 -9 -12 -9 4 -1 0 -16 -9 -33 -13 -24 -13 -30 -3 -21 13 11 54 74 47 72 -2 0 -12 -4 -23 -9z" />
      <path
         id="p7f6LZBUI"
         d="M591 718 c17 -34 19 -34 17 -5 -1 15 -8 27 -16 27 -10 0 -10 -5 -1 -22z" />
      <path
         id="pVFfoPdKz"
         d="M1200 572 c0 -10 43 -52 53 -52 3 0 4 8 0 18 -10 28 -53 56 -53 34z" />
      <path
         id="p1ApUOyJ0A"
         d="M990 241 c0 -13 24 -31 42 -31 28 0 21 17 -12 29 -16 5 -30 7 -30 2z" />
    </g>
  </g>
  <g
     id="l5sPbjLYKsMCCk1fzcrPbbH"
     fill="rgb(22,154,135)"
     style="transform: none;">
    <g
       id="g147">
      <path
         id="pwPA0CTN5"
         d="M830 1714 c0 -13 -16 -26 -48 -41 -76 -35 -103 -42 -170 -47 -52 -4 -71 -11 -110 -40 -54 -39 -108 -93 -101 -101 3 -2 41 13 85 35 44 22 113 47 153 55 65 14 79 14 125 1 53 -16 98 -53 115 -96 6 -17 10 -19 10 -8 1 10 -13 33 -30 53 -28 31 -29 40 -6 36 4 0 7 4 7 10 0 6 8 8 18 5 18 -6 101 49 129 84 10 13 14 12 35 -5 23 -20 23 -20 5 2 -24 28 -100 60 -165 69 -47 6 -52 5 -52 -12z" />
      <path
         id="pZVvElw7P"
         d="M1215 553 c20 -18 30 -22 33 -13 5 15 -25 40 -47 40 -11 -1 -7 -9 14 -27z" />
      <path
         id="p19QZRwUr1"
         d="M990 239 c0 -16 49 -34 61 -22 6 6 -2 13 -26 20 -20 7 -35 7 -35 2z" />
    </g>
  </g>
  <g
     id="l1TBLosf55Af28OGYEe90F8"
     fill="rgb(20,150,137)"
     style="transform: none;">
    <g
       id="g153">
      <path
         id="pAD9Sa1h5"
         d="M725 1710 c-69 -22 -191 -94 -188 -109 2 -6 -3 -8 -11 -5 -8 3 -48 -28 -97 -75 -84 -81 -84 -81 -3 -33 45 26 79 50 77 54 -2 4 2 5 10 3 7 -3 29 1 48 9 68 28 151 37 202 22 26 -8 45 -10 42 -5 -3 4 -21 11 -40 15 -20 3 -38 10 -40 15 -6 9 59 30 78 25 7 -1 8 -1 4 2 -5 2 1 11 13 19 12 8 24 13 27 9 3 -3 12 1 19 9 8 8 21 12 29 9 8 -4 15 -2 15 4 0 18 49 23 80 7 17 -9 30 -13 30 -10 0 4 -21 15 -46 26 -67 30 -174 34 -249 9z m-259 -182 c4 -7 3 -8 -4 -4 -7 4 -12 3 -12 -1 0 -5 -10 -14 -22 -22 -22 -13 -22 -13 1 13 28 30 28 30 37 14z" />
      <path
         id="pcXuO0ZzI"
         d="M1200 566 c6 -8 19 -12 27 -9 10 4 14 2 9 -5 -3 -6 -2 -13 4 -17 5 -3 10 1 10 9 0 16 -29 36 -51 36 -9 0 -9 -3 1 -14z" />
      <path
         id="pciJfz7bH"
         d="M993 236 c2 -6 12 -10 22 -8 10 2 14 -1 10 -7 -7 -13 14 -14 32 -3 8 5 -2 12 -28 19 -29 8 -39 7 -36 -1z" />
    </g>
  </g>
</svg>
